<svg viewBox="0 0 918 279" fill="none" xmlns="http://www.w3.org/2000/svg">
  <path fill-rule="evenodd" clip-rule="evenodd" d="M213.842 35H127C123.686 35 121 37.6863 121 41V52C121 55.3137 123.686 58 127 58H207.824L213.842 35ZM204.161 72H170C166.686 72 164 74.6863 164 78V89C164 92.3137 166.686 95 170 95H198.143L204.161 72ZM194.48 109H36C32.6863 109 30 111.686 30 115V126C30 129.314 32.6863 132 36 132H188.462L194.48 109ZM184.786 146.051C184.529 146.017 184.266 146 184 146H36C32.6863 146 30 148.686 30 152V163C30 166.314 32.6863 169 36 169H178.781L184.786 146.051ZM175.118 183H114C110.686 183 108 185.686 108 189V200C108 203.314 110.686 206 114 206H169.1L175.118 183ZM165.437 220H36C32.6863 220 30 222.686 30 226V237C30 240.314 32.6863 243 36 243H159.419L165.437 220ZM36 35C32.6863 35 30 37.6863 30 41V52C30 55.3137 32.6863 58 36 58H102C105.314 58 108 55.3137 108 52V41C108 37.6863 105.314 35 102 35H36ZM6.5 53C10.0899 53 13 50.0899 13 46.5C13 42.9101 10.0899 40 6.5 40C2.91015 40 0 42.9101 0 46.5C0 50.0899 2.91015 53 6.5 53ZM6.5 90C10.0899 90 13 87.0899 13 83.5C13 79.9101 10.0899 77 6.5 77C2.91015 77 0 79.9101 0 83.5C0 87.0899 2.91015 90 6.5 90ZM30 78C30 74.6863 32.6863 72 36 72H147C150.314 72 153 74.6863 153 78V89C153 92.3137 150.314 95 147 95H36C32.6863 95 30 92.3137 30 89V78ZM13 120.5C13 124.09 10.0899 127 6.5 127C2.91015 127 0 124.09 0 120.5C0 116.91 2.91015 114 6.5 114C10.0899 114 13 116.91 13 120.5ZM13 157.5C13 161.09 10.0899 164 6.5 164C2.91015 164 0 161.09 0 157.5C0 153.91 2.91015 151 6.5 151C10.0899 151 13 153.91 13 157.5ZM6.5 201C10.0899 201 13 198.09 13 194.5C13 190.91 10.0899 188 6.5 188C2.91015 188 0 190.91 0 194.5C0 198.09 2.91015 201 6.5 201ZM30 189C30 185.686 32.6863 183 36 183H87C90.3137 183 93 185.686 93 189V200C93 203.314 90.3137 206 87 206H36C32.6863 206 30 203.314 30 200V189ZM13 231.5C13 235.09 10.0899 238 6.5 238C2.91015 238 0 235.09 0 231.5C0 227.91 2.91015 225 6.5 225C10.0899 225 13 227.91 13 231.5Z" fill="white"/>
  <path fill-rule="evenodd" clip-rule="evenodd" d="M162.868 277.584C164.368 278.483 166.124 279 168 279H287C292.523 279 297 274.523 297 269V217C297 211.477 292.523 207 287 207H181.21L162.868 277.584ZM186.407 187H287C292.523 187 297 182.523 297 177V10C297 4.47715 292.523 0 287 0H235L186.407 187ZM327 0C321.477 0 317 4.47715 317 10V101C317 106.523 321.477 111 327 111H446C451.523 111 456 106.523 456 101V10C456 4.47715 451.523 0 446 0H327ZM317 141C317 135.477 321.477 131 327 131H446C451.523 131 456 135.477 456 141V269C456 274.523 451.523 279 446 279H327C321.477 279 317 274.523 317 269V141Z" fill="white"/>
  <path d="M567.64 111.44C563.416 111.44 561.144 109.104 560.824 104.432C556.152 109.104 551.128 111.44 545.752 111.44C540.376 111.44 535.896 109.488 532.312 105.584C528.792 101.616 526.936 95.728 526.744 87.92C526.552 80.048 528.472 73.712 532.504 68.912C536.6 64.048 542.296 61.616 549.592 61.616C553.496 61.616 557.208 62.448 560.728 64.112V49.424L555.736 48.848C554.2 48.72 553.432 47.344 553.432 44.72L567.352 42.992V106.16L573.496 106.928C573.368 109.936 571.416 111.44 567.64 111.44ZM560.728 71.504C557.272 68.368 553.08 66.8 548.152 66.8C543.288 66.8 539.672 68.688 537.304 72.464C535 76.176 533.848 80.848 533.848 86.48C533.848 92.112 535 96.752 537.304 100.4C539.608 103.984 543.128 105.776 547.864 105.776C550.232 105.776 552.344 105.296 554.2 104.336C556.056 103.376 558.232 101.84 560.728 99.728V71.504ZM609.779 63.056H622.451C622.387 63.248 622.387 63.504 622.451 63.824C622.515 64.08 622.483 64.4 622.355 64.784C622.291 65.104 622.195 65.424 622.067 65.744C621.683 66.512 620.467 66.992 618.419 67.184L602.003 107.6H602.099C600.371 112.208 598.611 116.176 596.819 119.504C595.091 122.832 593.715 125.104 592.691 126.32C590.195 129.456 587.731 131.024 585.299 131.024C582.867 131.024 581.075 130.512 579.923 129.488C578.771 128.528 578.195 127.344 578.195 125.936C578.195 124.592 578.547 123.472 579.251 122.576C580.019 121.744 580.851 121.328 581.747 121.328C582.707 121.328 583.347 121.392 583.667 121.52C583.091 124.08 583.827 125.36 585.875 125.36C587.539 125.36 589.427 123.472 591.539 119.696C593.651 115.92 595.539 111.92 597.203 107.696L580.499 67.568H580.403L575.699 66.992C575.443 64.368 576.339 63.056 578.387 63.056H594.515V63.728C594.515 65.264 594.067 66.224 593.171 66.608C592.659 66.864 590.899 67.12 587.891 67.376L600.371 99.536L612.659 67.568L607.091 66.992C606.835 64.368 607.731 63.056 609.779 63.056ZM676.606 110H658.75V109.232C658.75 107.696 659.198 106.736 660.094 106.352C660.542 106.096 661.086 105.936 661.726 105.872L665.95 105.68V80.816C665.95 71.856 662.398 67.376 655.294 67.376C652.67 67.376 650.302 67.888 648.19 68.912C646.078 69.936 643.678 71.568 640.99 73.808V105.488L647.806 106.064C648.062 108.688 647.198 110 645.214 110H627.166V109.232C627.166 107.184 628.19 106.064 630.238 105.872L634.366 105.68V67.856L629.374 67.28C627.838 67.152 627.07 65.84 627.07 63.344L639.454 61.712L640.702 69.008H640.99C646.174 64.08 651.518 61.616 657.022 61.616C661.31 61.616 664.958 63.12 667.966 66.128C671.038 69.136 672.574 73.776 672.574 80.048V105.488L679.294 106.064C679.55 108.688 678.654 110 676.606 110ZM728.089 107.024C728.089 110.032 726.105 111.536 722.137 111.536C718.169 111.536 715.865 109.52 715.225 105.488C711.129 109.456 706.201 111.44 700.441 111.44C696.025 111.44 692.505 110.32 689.881 108.08C687.321 105.776 686.041 102.672 686.041 98.768C686.041 94.864 687.481 91.568 690.361 88.88C693.241 86.192 698.009 84.848 704.665 84.848C708.569 84.848 712.025 85.296 715.033 86.192V78.608C715.033 74.96 714.105 72.048 712.249 69.872C710.457 67.632 707.801 66.512 704.281 66.512C700.761 66.512 698.233 67.472 696.697 69.392C695.225 71.248 694.393 73.424 694.201 75.92C692.665 76.048 691.385 75.728 690.361 74.96C689.337 74.192 688.825 72.944 688.825 71.216C688.825 68.464 690.233 66.192 693.049 64.4C695.865 62.544 699.513 61.616 703.993 61.616C707.897 61.616 711.609 62.576 715.129 64.496C717.113 65.52 718.713 67.216 719.929 69.584C721.145 71.952 721.753 74.832 721.753 78.224V106.256L728.089 107.024ZM715.033 91.952C712.089 90.352 708.665 89.552 704.761 89.552C700.857 89.552 697.977 90.288 696.121 91.76C694.329 93.232 693.433 95.248 693.433 97.808C693.433 100.368 694.233 102.416 695.833 103.952C697.433 105.424 699.641 106.16 702.457 106.16C706.937 106.16 711.129 104.432 715.033 100.976V91.952ZM814.101 110H795.957V109.232C795.957 107.696 796.405 106.736 797.301 106.352C797.749 106.096 798.293 105.936 798.933 105.872L802.869 105.68V81.68C802.869 72.336 799.093 67.664 791.541 67.664C788.917 67.664 786.613 68.24 784.629 69.392C782.645 70.48 780.469 72.112 778.101 74.288C778.677 76.08 778.965 78.352 778.965 81.104V105.488L786.165 106.064C786.421 108.688 785.557 110 783.573 110H765.333V109.232C765.333 107.696 765.781 106.736 766.677 106.352C767.125 106.096 767.669 105.936 768.309 105.872L772.245 105.68V81.68C772.245 77.072 771.221 73.584 769.173 71.216C767.189 68.848 764.405 67.664 760.821 67.664C758.325 67.664 756.117 68.176 754.197 69.2C752.277 70.224 750.229 71.728 748.053 73.712V105.488L755.349 106.064C755.605 108.688 754.709 110 752.661 110H734.421V109.232C734.421 107.696 734.869 106.736 735.765 106.352C736.213 106.096 736.757 105.936 737.397 105.872L741.429 105.68V67.568L737.205 67.472C735.157 67.472 734.133 66.096 734.133 63.344L746.517 61.712L747.669 68.432H747.957C752.245 63.888 757.045 61.616 762.357 61.616C765.237 61.616 767.989 62.32 770.613 63.728C773.237 65.136 775.253 67.344 776.661 70.352C778.901 67.728 781.269 65.616 783.765 64.016C786.325 62.416 789.621 61.616 793.653 61.616C797.685 61.616 801.333 63.184 804.597 66.32C807.861 69.456 809.493 74.384 809.493 81.104V105.488L816.789 106.064C817.045 108.688 816.149 110 814.101 110ZM841.911 110H823.671V109.232C823.671 107.696 824.119 106.736 825.015 106.352C825.463 106.096 826.007 105.936 826.647 105.872L830.679 105.68V67.664L825.687 67.28C824.151 67.088 823.383 65.712 823.383 63.152L837.303 61.616V105.488L844.599 106.064C844.855 108.688 843.959 110 841.911 110ZM836.631 52.88C835.735 53.712 834.583 54.128 833.174 54.128C831.766 54.128 830.615 53.712 829.719 52.88C828.887 51.984 828.471 50.832 828.471 49.424C828.471 48.016 828.887 46.864 829.719 45.968C830.615 45.072 831.766 44.624 833.174 44.624C834.583 44.624 835.735 45.072 836.631 45.968C837.527 46.864 837.975 48.016 837.975 49.424C837.975 50.832 837.527 51.984 836.631 52.88ZM873.4 61.616C877.496 61.616 880.728 62.448 883.096 64.112C885.528 65.776 886.744 67.984 886.744 70.736C886.744 74.256 884.952 75.952 881.368 75.824C881.304 73.456 880.472 71.376 878.872 69.584C877.336 67.728 875 66.8 871.864 66.8C867.32 66.8 863.832 68.688 861.4 72.464C859.032 76.24 857.848 81.008 857.848 86.768C857.848 91.824 858.84 96.176 860.824 99.824C863.128 103.856 867.096 105.872 872.728 105.872C877.336 105.872 881.72 104.176 885.88 100.784C886.712 101.36 887.128 102.128 887.128 103.088C887.128 105.008 885.304 106.896 881.656 108.752C878.008 110.544 874.104 111.44 869.944 111.44C863.864 111.44 859.16 109.328 855.832 105.104C852.568 100.88 850.872 95.12 850.744 87.824C850.616 80.464 852.568 74.256 856.6 69.2C860.632 64.144 866.232 61.616 873.4 61.616ZM538.648 166.472V194.696C538.648 198.28 539.032 200.872 539.8 202.472C540.632 204.072 542.168 204.872 544.408 204.872C546.712 204.872 548.632 204.616 550.168 204.104C551.704 203.592 553.592 202.44 555.832 200.648C556.984 200.968 557.56 201.928 557.56 203.528C557.56 205.128 555.992 206.696 552.856 208.232C549.784 209.768 546.808 210.536 543.928 210.536C539.448 210.536 536.344 209.256 534.616 206.696C532.888 204.136 532.024 200.424 532.024 195.56V166.472H525.016C524.824 163.528 525.752 162.056 527.8 162.056H532.024V150.632L538.648 149V162.056H556.6C556.792 164.168 556.312 165.64 555.16 166.472H538.648ZM600.186 183.752H570.042C569.978 184.392 569.946 185.384 569.946 186.728C569.946 192.168 571.098 196.584 573.402 199.976C575.706 203.304 579.29 204.968 584.154 204.968C589.018 204.968 593.658 203.24 598.074 199.784C598.842 200.424 599.226 201.224 599.226 202.184C599.226 203.976 597.466 205.8 593.946 207.656C590.49 209.512 586.586 210.44 582.234 210.44C576.282 210.44 571.514 208.488 567.93 204.584C564.41 200.68 562.65 194.728 562.65 186.728C562.65 178.728 564.762 172.392 568.986 167.72C573.21 162.984 578.202 160.616 583.962 160.616C589.722 160.616 593.882 162.44 596.442 166.088C599.002 169.736 600.25 174.088 600.186 179.144V183.752ZM593.178 179.432C593.178 175.144 592.346 171.752 590.682 169.256C589.018 166.696 586.586 165.416 583.386 165.416C580.25 165.416 577.562 166.664 575.322 169.16C573.082 171.656 571.514 175.08 570.618 179.432H593.178ZM687.444 209H669.3V208.232C669.3 206.696 669.748 205.736 670.644 205.352C671.092 205.096 671.636 204.936 672.276 204.872L676.212 204.68V180.68C676.212 171.336 672.436 166.664 664.884 166.664C662.26 166.664 659.956 167.24 657.972 168.392C655.988 169.48 653.812 171.112 651.444 173.288C652.02 175.08 652.308 177.352 652.308 180.104V204.488L659.508 205.064C659.764 207.688 658.9 209 656.916 209H638.676V208.232C638.676 206.696 639.124 205.736 640.02 205.352C640.468 205.096 641.012 204.936 641.652 204.872L645.588 204.68V180.68C645.588 176.072 644.564 172.584 642.516 170.216C640.532 167.848 637.748 166.664 634.164 166.664C631.668 166.664 629.46 167.176 627.54 168.2C625.62 169.224 623.572 170.728 621.396 172.712V204.488L628.692 205.064C628.948 207.688 628.052 209 626.004 209H607.764V208.232C607.764 206.696 608.212 205.736 609.108 205.352C609.556 205.096 610.1 204.936 610.74 204.872L614.772 204.68V166.568L610.548 166.472C608.5 166.472 607.476 165.096 607.476 162.344L619.86 160.712L621.012 167.432H621.3C625.588 162.888 630.388 160.616 635.7 160.616C638.58 160.616 641.332 161.32 643.956 162.728C646.58 164.136 648.596 166.344 650.004 169.352C652.244 166.728 654.612 164.616 657.108 163.016C659.668 161.416 662.964 160.616 666.996 160.616C671.028 160.616 674.676 162.184 677.94 165.32C681.204 168.456 682.836 173.384 682.836 180.104V204.488L690.132 205.064C690.388 207.688 689.492 209 687.444 209ZM707.19 167.72C712.182 162.984 717.302 160.616 722.55 160.616C727.798 160.616 732.182 162.6 735.702 166.568C739.286 170.472 741.142 176.36 741.27 184.232C741.462 192.04 739.542 198.376 735.51 203.24C731.478 208.04 725.814 210.44 718.518 210.44C714.87 210.44 711.158 209.608 707.382 207.944V225.032L714.678 225.608C714.934 228.232 714.038 229.544 711.99 229.544H693.75V228.776C693.75 227.24 694.198 226.28 695.094 225.896C695.606 225.704 697.494 225.48 700.758 225.224V167.048L695.67 166.472C694.198 166.344 693.462 165.096 693.462 162.728L705.846 161.096L707.19 167.72ZM707.382 200.552C710.71 203.688 714.87 205.256 719.862 205.256C724.854 205.256 728.47 203.368 730.71 199.592C733.014 195.816 734.166 191.112 734.166 185.48C734.166 179.848 733.014 175.24 730.71 171.656C728.47 168.072 724.982 166.28 720.246 166.28C717.878 166.28 715.766 166.76 713.91 167.72C712.054 168.68 709.878 170.184 707.382 172.232V200.552ZM767.464 209H749.416V208.232C749.416 206.184 750.44 205.064 752.488 204.872L756.616 204.68V148.328L751.624 147.848C750.088 147.656 749.32 146.312 749.32 143.816L763.24 141.992V204.488L770.056 205.064C770.312 207.688 769.448 209 767.464 209ZM818.933 206.024C818.933 209.032 816.949 210.536 812.981 210.536C809.013 210.536 806.709 208.52 806.069 204.488C801.973 208.456 797.045 210.44 791.285 210.44C786.869 210.44 783.349 209.32 780.725 207.08C778.165 204.776 776.885 201.672 776.885 197.768C776.885 193.864 778.325 190.568 781.205 187.88C784.085 185.192 788.853 183.848 795.509 183.848C799.413 183.848 802.869 184.296 805.877 185.192V177.608C805.877 173.96 804.949 171.048 803.093 168.872C801.301 166.632 798.645 165.512 795.125 165.512C791.605 165.512 789.077 166.472 787.541 168.392C786.069 170.248 785.237 172.424 785.045 174.92C783.509 175.048 782.229 174.728 781.205 173.96C780.181 173.192 779.669 171.944 779.669 170.216C779.669 167.464 781.077 165.192 783.893 163.4C786.709 161.544 790.357 160.616 794.837 160.616C798.741 160.616 802.453 161.576 805.973 163.496C807.957 164.52 809.557 166.216 810.773 168.584C811.989 170.952 812.597 173.832 812.597 177.224V205.256L818.933 206.024ZM805.877 190.952C802.933 189.352 799.509 188.552 795.605 188.552C791.701 188.552 788.821 189.288 786.965 190.76C785.173 192.232 784.277 194.248 784.277 196.808C784.277 199.368 785.077 201.416 786.677 202.952C788.277 204.424 790.485 205.16 793.301 205.16C797.781 205.16 801.973 203.432 805.877 199.976V190.952ZM836.304 166.472V194.696C836.304 198.28 836.688 200.872 837.456 202.472C838.288 204.072 839.824 204.872 842.064 204.872C844.368 204.872 846.288 204.616 847.824 204.104C849.36 203.592 851.248 202.44 853.488 200.648C854.64 200.968 855.216 201.928 855.216 203.528C855.216 205.128 853.648 206.696 850.512 208.232C847.44 209.768 844.464 210.536 841.584 210.536C837.104 210.536 834 209.256 832.272 206.696C830.544 204.136 829.68 200.424 829.68 195.56V166.472H822.672C822.48 163.528 823.408 162.056 825.456 162.056H829.68V150.632L836.304 149V162.056H854.256C854.448 164.168 853.968 165.64 852.816 166.472H836.304ZM897.843 183.752H867.699C867.635 184.392 867.603 185.384 867.603 186.728C867.603 192.168 868.755 196.584 871.059 199.976C873.363 203.304 876.947 204.968 881.811 204.968C886.675 204.968 891.315 203.24 895.731 199.784C896.499 200.424 896.883 201.224 896.883 202.184C896.883 203.976 895.123 205.8 891.603 207.656C888.147 209.512 884.243 210.44 879.891 210.44C873.939 210.44 869.171 208.488 865.587 204.584C862.067 200.68 860.307 194.728 860.307 186.728C860.307 178.728 862.419 172.392 866.643 167.72C870.867 162.984 875.859 160.616 881.619 160.616C887.379 160.616 891.539 162.44 894.099 166.088C896.659 169.736 897.907 174.088 897.843 179.144V183.752ZM890.835 179.432C890.835 175.144 890.003 171.752 888.339 169.256C886.675 166.696 884.243 165.416 881.043 165.416C877.907 165.416 875.219 166.664 872.979 169.16C870.739 171.656 869.171 175.08 868.275 179.432H890.835Z" fill="white"/>
</svg>
