<svg width="456" height="381" viewBox="0 0 456 381" fill="none" xmlns="http://www.w3.org/2000/svg">
  <path fill-rule="evenodd" clip-rule="evenodd" d="M213.842 35H127C123.686 35 121 37.6863 121 41V52C121 55.3137 123.686 58 127 58H207.824L213.842 35ZM204.161 72H170C166.686 72 164 74.6863 164 78V89C164 92.3137 166.686 95 170 95H198.143L204.161 72ZM194.48 109H36C32.6863 109 30 111.686 30 115V126C30 129.314 32.6863 132 36 132H188.462L194.48 109ZM184.786 146.051C184.529 146.017 184.266 146 184 146H36C32.6863 146 30 148.686 30 152V163C30 166.314 32.6863 169 36 169H178.781L184.786 146.051ZM175.118 183H114C110.686 183 108 185.686 108 189V200C108 203.314 110.686 206 114 206H169.1L175.118 183ZM165.437 220H36C32.6863 220 30 222.686 30 226V237C30 240.314 32.6863 243 36 243H159.419L165.437 220ZM36 35C32.6863 35 30 37.6863 30 41V52C30 55.3137 32.6863 58 36 58H102C105.314 58 108 55.3137 108 52V41C108 37.6863 105.314 35 102 35H36ZM6.5 53C10.0899 53 13 50.0899 13 46.5C13 42.9101 10.0899 40 6.5 40C2.91015 40 0 42.9101 0 46.5C0 50.0899 2.91015 53 6.5 53ZM6.5 90C10.0899 90 13 87.0899 13 83.5C13 79.9101 10.0899 77 6.5 77C2.91015 77 0 79.9101 0 83.5C0 87.0899 2.91015 90 6.5 90ZM30 78C30 74.6863 32.6863 72 36 72H147C150.314 72 153 74.6863 153 78V89C153 92.3137 150.314 95 147 95H36C32.6863 95 30 92.3137 30 89V78ZM13 120.5C13 124.09 10.0899 127 6.5 127C2.91015 127 0 124.09 0 120.5C0 116.91 2.91015 114 6.5 114C10.0899 114 13 116.91 13 120.5ZM13 157.5C13 161.09 10.0899 164 6.5 164C2.91015 164 0 161.09 0 157.5C0 153.91 2.91015 151 6.5 151C10.0899 151 13 153.91 13 157.5ZM6.5 201C10.0899 201 13 198.09 13 194.5C13 190.91 10.0899 188 6.5 188C2.91015 188 0 190.91 0 194.5C0 198.09 2.91015 201 6.5 201ZM30 189C30 185.686 32.6863 183 36 183H87C90.3137 183 93 185.686 93 189V200C93 203.314 90.3137 206 87 206H36C32.6863 206 30 203.314 30 200V189ZM13 231.5C13 235.09 10.0899 238 6.5 238C2.91015 238 0 235.09 0 231.5C0 227.91 2.91015 225 6.5 225C10.0899 225 13 227.91 13 231.5Z" fill="white"/>
  <path fill-rule="evenodd" clip-rule="evenodd" d="M162.868 277.584C164.368 278.483 166.124 279 168 279H287C292.523 279 297 274.523 297 269V217C297 211.477 292.523 207 287 207H181.21L162.868 277.584ZM186.407 187H287C292.523 187 297 182.523 297 177V10C297 4.47715 292.523 0 287 0H235L186.407 187ZM327 0C321.477 0 317 4.47715 317 10V101C317 106.523 321.477 111 327 111H446C451.523 111 456 106.523 456 101V10C456 4.47715 451.523 0 446 0H327ZM317 141C317 135.477 321.477 131 327 131H446C451.523 131 456 135.477 456 141V269C456 274.523 451.523 279 446 279H327C321.477 279 317 274.523 317 269V141Z" fill="white"/>
  <path d="M57.32 356.72C55.208 356.72 54.072 355.552 53.912 353.216C51.576 355.552 49.064 356.72 46.376 356.72C43.688 356.72 41.448 355.744 39.656 353.792C37.896 351.808 36.968 348.864 36.872 344.96C36.776 341.024 37.736 337.856 39.752 335.456C41.8 333.024 44.648 331.808 48.296 331.808C50.248 331.808 52.104 332.224 53.864 333.056V325.712L51.368 325.424C50.6 325.36 50.216 324.672 50.216 323.36L57.176 322.496V354.08L60.248 354.464C60.184 355.968 59.208 356.72 57.32 356.72ZM53.864 336.752C52.136 335.184 50.04 334.4 47.576 334.4C45.144 334.4 43.336 335.344 42.152 337.232C41 339.088 40.424 341.424 40.424 344.24C40.424 347.056 41 349.376 42.152 351.2C43.304 352.992 45.064 353.888 47.432 353.888C48.616 353.888 49.672 353.648 50.6 353.168C51.528 352.688 52.616 351.92 53.864 350.864V336.752ZM78.3894 332.528H84.7254C84.6934 332.624 84.6934 332.752 84.7254 332.912C84.7574 333.04 84.7414 333.2 84.6774 333.392C84.6454 333.552 84.5974 333.712 84.5334 333.872C84.3414 334.256 83.7334 334.496 82.7094 334.592L74.5014 354.8H74.5494C73.6854 357.104 72.8054 359.088 71.9094 360.752C71.0454 362.416 70.3574 363.552 69.8454 364.16C68.5974 365.728 67.3654 366.512 66.1494 366.512C64.9334 366.512 64.0374 366.256 63.4614 365.744C62.8854 365.264 62.5974 364.672 62.5974 363.968C62.5974 363.296 62.7734 362.736 63.1254 362.288C63.5094 361.872 63.9254 361.664 64.3734 361.664C64.8534 361.664 65.1734 361.696 65.3334 361.76C65.0454 363.04 65.4134 363.68 66.4374 363.68C67.2694 363.68 68.2134 362.736 69.2694 360.848C70.3254 358.96 71.2694 356.96 72.1014 354.848L63.7494 334.784H63.7014L61.3494 334.496C61.2214 333.184 61.6694 332.528 62.6934 332.528H70.7574V332.864C70.7574 333.632 70.5334 334.112 70.0854 334.304C69.8294 334.432 68.9494 334.56 67.4454 334.688L73.6854 350.768L79.8294 334.784L77.0454 334.496C76.9174 333.184 77.3654 332.528 78.3894 332.528ZM111.803 356H102.875V355.616C102.875 354.848 103.099 354.368 103.547 354.176C103.771 354.048 104.043 353.968 104.363 353.936L106.475 353.84V341.408C106.475 336.928 104.699 334.688 101.147 334.688C99.835 334.688 98.651 334.944 97.595 335.456C96.539 335.968 95.339 336.784 93.995 337.904V353.744L97.403 354.032C97.531 355.344 97.099 356 96.107 356H87.083V355.616C87.083 354.592 87.595 354.032 88.619 353.936L90.683 353.84V334.928L88.187 334.64C87.419 334.576 87.035 333.92 87.035 332.672L93.227 331.856L93.851 335.504H93.995C96.587 333.04 99.259 331.808 102.011 331.808C104.155 331.808 105.979 332.56 107.483 334.064C109.019 335.568 109.787 337.888 109.787 341.024V353.744L113.147 354.032C113.275 355.344 112.827 356 111.803 356ZM137.545 354.512C137.545 356.016 136.553 356.768 134.569 356.768C132.585 356.768 131.433 355.76 131.113 353.744C129.065 355.728 126.601 356.72 123.721 356.72C121.513 356.72 119.753 356.16 118.441 355.04C117.161 353.888 116.521 352.336 116.521 350.384C116.521 348.432 117.241 346.784 118.681 345.44C120.121 344.096 122.505 343.424 125.833 343.424C127.785 343.424 129.513 343.648 131.017 344.096V340.304C131.017 338.48 130.553 337.024 129.625 335.936C128.729 334.816 127.401 334.256 125.641 334.256C123.881 334.256 122.617 334.736 121.849 335.696C121.113 336.624 120.697 337.712 120.601 338.96C119.833 339.024 119.193 338.864 118.681 338.48C118.169 338.096 117.913 337.472 117.913 336.608C117.913 335.232 118.617 334.096 120.025 333.2C121.433 332.272 123.257 331.808 125.497 331.808C127.449 331.808 129.305 332.288 131.065 333.248C132.057 333.76 132.857 334.608 133.465 335.792C134.073 336.976 134.377 338.416 134.377 340.112V354.128L137.545 354.512ZM131.017 346.976C129.545 346.176 127.833 345.776 125.881 345.776C123.929 345.776 122.489 346.144 121.561 346.88C120.665 347.616 120.217 348.624 120.217 349.904C120.217 351.184 120.617 352.208 121.417 352.976C122.217 353.712 123.321 354.08 124.729 354.08C126.969 354.08 129.065 353.216 131.017 351.488V346.976ZM180.55 356H171.478V355.616C171.478 354.848 171.702 354.368 172.15 354.176C172.374 354.048 172.646 353.968 172.966 353.936L174.934 353.84V341.84C174.934 337.168 173.046 334.832 169.27 334.832C167.958 334.832 166.806 335.12 165.814 335.696C164.822 336.24 163.734 337.056 162.55 338.144C162.838 339.04 162.982 340.176 162.982 341.552V353.744L166.582 354.032C166.71 355.344 166.278 356 165.286 356H156.166V355.616C156.166 354.848 156.39 354.368 156.838 354.176C157.062 354.048 157.334 353.968 157.654 353.936L159.622 353.84V341.84C159.622 339.536 159.11 337.792 158.086 336.608C157.094 335.424 155.702 334.832 153.91 334.832C152.662 334.832 151.558 335.088 150.598 335.6C149.638 336.112 148.614 336.864 147.526 337.856V353.744L151.174 354.032C151.302 355.344 150.854 356 149.83 356H140.71V355.616C140.71 354.848 140.934 354.368 141.382 354.176C141.606 354.048 141.878 353.968 142.198 353.936L144.214 353.84V334.784L142.102 334.736C141.078 334.736 140.566 334.048 140.566 332.672L146.758 331.856L147.334 335.216H147.478C149.622 332.944 152.022 331.808 154.678 331.808C156.118 331.808 157.494 332.16 158.806 332.864C160.118 333.568 161.126 334.672 161.83 336.176C162.95 334.864 164.134 333.808 165.382 333.008C166.662 332.208 168.31 331.808 170.326 331.808C172.342 331.808 174.166 332.592 175.798 334.16C177.43 335.728 178.246 338.192 178.246 341.552V353.744L181.894 354.032C182.022 355.344 181.574 356 180.55 356ZM194.455 356H185.335V355.616C185.335 354.848 185.559 354.368 186.007 354.176C186.231 354.048 186.503 353.968 186.823 353.936L188.839 353.84V334.832L186.343 334.64C185.575 334.544 185.191 333.856 185.191 332.576L192.151 331.808V353.744L195.799 354.032C195.927 355.344 195.479 356 194.455 356ZM191.815 327.44C191.367 327.856 190.791 328.064 190.087 328.064C189.383 328.064 188.807 327.856 188.359 327.44C187.943 326.992 187.735 326.416 187.735 325.712C187.735 325.008 187.943 324.432 188.359 323.984C188.807 323.536 189.383 323.312 190.087 323.312C190.791 323.312 191.367 323.536 191.815 323.984C192.263 324.432 192.487 325.008 192.487 325.712C192.487 326.416 192.263 326.992 191.815 327.44ZM210.2 331.808C212.248 331.808 213.864 332.224 215.048 333.056C216.264 333.888 216.872 334.992 216.872 336.368C216.872 338.128 215.976 338.976 214.184 338.912C214.152 337.728 213.736 336.688 212.936 335.792C212.168 334.864 211 334.4 209.432 334.4C207.16 334.4 205.416 335.344 204.2 337.232C203.016 339.12 202.424 341.504 202.424 344.384C202.424 346.912 202.92 349.088 203.912 350.912C205.064 352.928 207.048 353.936 209.864 353.936C212.168 353.936 214.36 353.088 216.44 351.392C216.856 351.68 217.064 352.064 217.064 352.544C217.064 353.504 216.152 354.448 214.328 355.376C212.504 356.272 210.552 356.72 208.472 356.72C205.432 356.72 203.08 355.664 201.416 353.552C199.784 351.44 198.936 348.56 198.872 344.912C198.808 341.232 199.784 338.128 201.8 335.6C203.816 333.072 206.616 331.808 210.2 331.808ZM239.371 334.736V348.848C239.371 350.64 239.563 351.936 239.947 352.736C240.363 353.536 241.131 353.936 242.251 353.936C243.403 353.936 244.363 353.808 245.131 353.552C245.899 353.296 246.843 352.72 247.963 351.824C248.539 351.984 248.827 352.464 248.827 353.264C248.827 354.064 248.043 354.848 246.475 355.616C244.939 356.384 243.451 356.768 242.011 356.768C239.771 356.768 238.219 356.128 237.355 354.848C236.491 353.568 236.059 351.712 236.059 349.28V334.736H232.555C232.459 333.264 232.923 332.528 233.947 332.528H236.059V326.816L239.371 326V332.528H248.347C248.443 333.584 248.203 334.32 247.627 334.736H239.371ZM270.14 343.376H255.068C255.036 343.696 255.02 344.192 255.02 344.864C255.02 347.584 255.596 349.792 256.748 351.488C257.9 353.152 259.692 353.984 262.124 353.984C264.556 353.984 266.876 353.12 269.084 351.392C269.468 351.712 269.66 352.112 269.66 352.592C269.66 353.488 268.78 354.4 267.02 355.328C265.292 356.256 263.34 356.72 261.164 356.72C258.188 356.72 255.804 355.744 254.012 353.792C252.252 351.84 251.372 348.864 251.372 344.864C251.372 340.864 252.428 337.696 254.54 335.36C256.652 332.992 259.148 331.808 262.028 331.808C264.908 331.808 266.988 332.72 268.268 334.544C269.548 336.368 270.172 338.544 270.14 341.072V343.376ZM266.636 341.216C266.636 339.072 266.22 337.376 265.388 336.128C264.556 334.848 263.34 334.208 261.74 334.208C260.172 334.208 258.828 334.832 257.708 336.08C256.588 337.328 255.804 339.04 255.356 341.216H266.636ZM313.769 356H304.697V355.616C304.697 354.848 304.921 354.368 305.369 354.176C305.593 354.048 305.865 353.968 306.185 353.936L308.153 353.84V341.84C308.153 337.168 306.265 334.832 302.489 334.832C301.177 334.832 300.025 335.12 299.033 335.696C298.041 336.24 296.953 337.056 295.769 338.144C296.057 339.04 296.201 340.176 296.201 341.552V353.744L299.801 354.032C299.929 355.344 299.497 356 298.505 356H289.385V355.616C289.385 354.848 289.609 354.368 290.057 354.176C290.281 354.048 290.553 353.968 290.873 353.936L292.841 353.84V341.84C292.841 339.536 292.329 337.792 291.305 336.608C290.313 335.424 288.921 334.832 287.129 334.832C285.881 334.832 284.777 335.088 283.817 335.6C282.857 336.112 281.833 336.864 280.745 337.856V353.744L284.393 354.032C284.521 355.344 284.073 356 283.049 356H273.929V355.616C273.929 354.848 274.153 354.368 274.601 354.176C274.825 354.048 275.097 353.968 275.417 353.936L277.433 353.84V334.784L275.321 334.736C274.297 334.736 273.785 334.048 273.785 332.672L279.977 331.856L280.553 335.216H280.697C282.841 332.944 285.241 331.808 287.897 331.808C289.337 331.808 290.713 332.16 292.025 332.864C293.337 333.568 294.345 334.672 295.049 336.176C296.169 334.864 297.353 333.808 298.601 333.008C299.881 332.208 301.529 331.808 303.545 331.808C305.561 331.808 307.385 332.592 309.017 334.16C310.649 335.728 311.465 338.192 311.465 341.552V353.744L315.113 354.032C315.241 355.344 314.793 356 313.769 356ZM323.642 335.36C326.138 332.992 328.698 331.808 331.322 331.808C333.946 331.808 336.138 332.8 337.898 334.784C339.69 336.736 340.618 339.68 340.682 343.616C340.778 347.52 339.818 350.688 337.802 353.12C335.786 355.52 332.954 356.72 329.306 356.72C327.482 356.72 325.626 356.304 323.738 355.472V364.016L327.386 364.304C327.514 365.616 327.066 366.272 326.042 366.272H316.922V365.888C316.922 365.12 317.146 364.64 317.594 364.448C317.85 364.352 318.794 364.24 320.426 364.112V335.024L317.882 334.736C317.146 334.672 316.778 334.048 316.778 332.864L322.97 332.048L323.642 335.36ZM323.738 351.776C325.402 353.344 327.482 354.128 329.978 354.128C332.474 354.128 334.282 353.184 335.402 351.296C336.554 349.408 337.13 347.056 337.13 344.24C337.13 341.424 336.554 339.12 335.402 337.328C334.282 335.536 332.538 334.64 330.17 334.64C328.986 334.64 327.93 334.88 327.002 335.36C326.074 335.84 324.986 336.592 323.738 337.616V351.776ZM353.779 356H344.755V355.616C344.755 354.592 345.267 354.032 346.291 353.936L348.355 353.84V325.664L345.859 325.424C345.091 325.328 344.707 324.656 344.707 323.408L351.667 322.496V353.744L355.075 354.032C355.203 355.344 354.771 356 353.779 356ZM379.513 354.512C379.513 356.016 378.521 356.768 376.537 356.768C374.553 356.768 373.401 355.76 373.081 353.744C371.033 355.728 368.569 356.72 365.689 356.72C363.481 356.72 361.721 356.16 360.409 355.04C359.129 353.888 358.489 352.336 358.489 350.384C358.489 348.432 359.209 346.784 360.649 345.44C362.089 344.096 364.473 343.424 367.801 343.424C369.753 343.424 371.481 343.648 372.985 344.096V340.304C372.985 338.48 372.521 337.024 371.593 335.936C370.697 334.816 369.369 334.256 367.609 334.256C365.849 334.256 364.585 334.736 363.817 335.696C363.081 336.624 362.665 337.712 362.569 338.96C361.801 339.024 361.161 338.864 360.649 338.48C360.137 338.096 359.881 337.472 359.881 336.608C359.881 335.232 360.585 334.096 361.993 333.2C363.401 332.272 365.225 331.808 367.465 331.808C369.417 331.808 371.273 332.288 373.033 333.248C374.025 333.76 374.825 334.608 375.433 335.792C376.041 336.976 376.345 338.416 376.345 340.112V354.128L379.513 354.512ZM372.985 346.976C371.513 346.176 369.801 345.776 367.849 345.776C365.897 345.776 364.457 346.144 363.529 346.88C362.633 347.616 362.185 348.624 362.185 349.904C362.185 351.184 362.585 352.208 363.385 352.976C364.185 353.712 365.289 354.08 366.697 354.08C368.937 354.08 371.033 353.216 372.985 351.488V346.976ZM388.199 334.736V348.848C388.199 350.64 388.391 351.936 388.775 352.736C389.191 353.536 389.959 353.936 391.079 353.936C392.231 353.936 393.191 353.808 393.959 353.552C394.727 353.296 395.671 352.72 396.791 351.824C397.367 351.984 397.655 352.464 397.655 353.264C397.655 354.064 396.871 354.848 395.303 355.616C393.767 356.384 392.279 356.768 390.839 356.768C388.599 356.768 387.047 356.128 386.183 354.848C385.319 353.568 384.887 351.712 384.887 349.28V334.736H381.383C381.287 333.264 381.751 332.528 382.775 332.528H384.887V326.816L388.199 326V332.528H397.175C397.271 333.584 397.031 334.32 396.455 334.736H388.199ZM418.968 343.376H403.896C403.864 343.696 403.848 344.192 403.848 344.864C403.848 347.584 404.424 349.792 405.576 351.488C406.728 353.152 408.52 353.984 410.952 353.984C413.384 353.984 415.704 353.12 417.912 351.392C418.296 351.712 418.488 352.112 418.488 352.592C418.488 353.488 417.608 354.4 415.848 355.328C414.12 356.256 412.168 356.72 409.992 356.72C407.016 356.72 404.632 355.744 402.84 353.792C401.08 351.84 400.2 348.864 400.2 344.864C400.2 340.864 401.256 337.696 403.368 335.36C405.48 332.992 407.976 331.808 410.856 331.808C413.736 331.808 415.816 332.72 417.096 334.544C418.376 336.368 419 338.544 418.968 341.072V343.376ZM415.464 341.216C415.464 339.072 415.048 337.376 414.216 336.128C413.384 334.848 412.168 334.208 410.568 334.208C409 334.208 407.656 334.832 406.536 336.08C405.416 337.328 404.632 339.04 404.184 341.216H415.464Z" fill="white"/>
</svg>
